<svg width="512" height="512" viewBox="0 0 512 512" fill="none" xmlns="http://www.w3.org/2000/svg">
  <rect width="512" height="512" rx="48" fill="#0A0F1C"/>
  <rect x="32" y="32" width="448" height="448" rx="32" fill="#0F172A" stroke="url(#frame)" stroke-width="8"/>
  <defs>
    <linearGradient id="frame" x1="32" y1="32" x2="480" y2="480" gradientUnits="userSpaceOnUse">
      <stop offset="0" stop-color="#38BDF8"/>
      <stop offset="0.5" stop-color="#6366F1"/>
      <stop offset="1" stop-color="#22C55E"/>
    </linearGradient>
    <radialGradient id="halo" cx="0" cy="0" r="1" gradientUnits="userSpaceOnUse" gradientTransform="translate(260 256) scale(200 200)">
      <stop offset="0" stop-color="#E2E8F0" stop-opacity="0.9"/>
      <stop offset="0.45" stop-color="#38BDF8" stop-opacity="0.9"/>
      <stop offset="1" stop-color="#0F172A" stop-opacity="0"/>
    </radialGradient>
    <linearGradient id="spiral" x1="180" y1="180" x2="360" y2="340" gradientUnits="userSpaceOnUse">
      <stop offset="0" stop-color="#F8FAFC"/>
      <stop offset="0.35" stop-color="#60A5FA"/>
      <stop offset="0.7" stop-color="#A78BFA"/>
      <stop offset="1" stop-color="#F97316"/>
    </linearGradient>
  </defs>

  <circle cx="260" cy="256" r="170" fill="url(#halo)"/>

  <path d="M260 256L430 150L430 362Z" fill="#2563EB" fill-opacity="0.12"/>
  <path d="M260 256L150 112L70 310Z" fill="#22C55E" fill-opacity="0.12"/>
  <path d="M260 256L340 430L120 430Z" fill="#F97316" fill-opacity="0.12"/>

  <circle cx="356" cy="156" r="10" fill="#38BDF8"/>
  <circle cx="384" cy="330" r="10" fill="#F43F5E"/>
  <circle cx="230" cy="364" r="10" fill="#FACC15"/>
  <circle cx="356" cy="156" r="22" fill="none" stroke="#38BDF8" stroke-opacity="0.35" stroke-width="3"/>
  <circle cx="384" cy="330" r="22" fill="none" stroke="#F43F5E" stroke-opacity="0.35" stroke-width="3"/>
  <circle cx="230" cy="364" r="22" fill="none" stroke="#FACC15" stroke-opacity="0.35" stroke-width="3"/>

  <g fill="url(#spiral)">
    <circle cx="400" cy="256" r="26"/>
    <circle cx="370" cy="307" r="22"/>
    <circle cx="318" cy="340" r="19"/>
    <circle cx="260" cy="342" r="16"/>
    <circle cx="214" cy="311" r="13"/>
    <circle cx="201" cy="266" r="11"/>
    <circle cx="219" cy="222" r="9"/>
    <circle cx="249" cy="215" r="7"/>
    <circle cx="278" cy="225" r="6"/>
    <circle cx="288" cy="250" r="5"/>
    <circle cx="283" cy="264" r="4"/>
    <circle cx="266" cy="273" r="3"/>
  </g>

  <circle cx="190" cy="256" r="96" fill="none" stroke="#93C5FD" stroke-opacity="0.35" stroke-width="3"/>
  <circle cx="120" cy="256" r="50" fill="none" stroke="#60A5FA" stroke-opacity="0.3" stroke-width="3"/>

  <path d="M130 260c20 8 44 8 66-2" stroke="#38BDF8" stroke-opacity="0.5" stroke-width="3" stroke-linecap="round"/>
  <path d="M300 204c38-10 76-6 108 10" stroke="#A78BFA" stroke-opacity="0.5" stroke-width="3" stroke-linecap="round"/>

  <text x="256" y="408" fill="#CBD5F5" font-size="18" text-anchor="middle" font-family="ui-monospace, SFMono-Regular, Menlo, Monaco, Consolas, 'Liberation Mono', 'Courier New', monospace">
    FRACTAL
    <tspan x="256" dy="20" font-size="13" fill="#94A3B8">GEOMETRY</tspan>
  </text>
</svg>
